# xmcd
#
# Track frame offsets:
#	150
#	13965
#	30320
#	43280
#	61635
#	80697
#	93814
#	110784
#	121625
#	134922
#	149188
#	159669
#	173469
#	187500
#
# Disc length: 2669 seconds
#
# Revision: 0
# Processed by: cddbd v1.5.2PL0 Copyright (c) Steve Scherf et al.
# Submitted via: audiograbber 1.83.01
#
DISCID=b90a6b0e
DTITLE=Wayne Dunn - Great Is Thy Faithfulness
DYEAR=2012
DGENRE=Gospel
TTITLE0=Great Is Thy Faithfulness
TTITLE1=Lead Me Gently Home, Father
TTITLE2=A Name I Highly Treasure
TTITLE3=No Not One
TTITLE4=I Will Serve Thee
TTITLE5=Constantly Abiding
TTITLE6=I Have Found A Hiding Place
TTITLE7=The Unclouded Day
TTITLE8=Jesus Is The Sweetest Name I Know
TTITLE9=Heaven Came Down
TTITLE10=Come Unto Me
TTITLE11=I Must Tell Jesus
TTITLE12=Room At The Cross
TTITLE13=Is Your All On The Altar?
EXTD=
EXTT0=
EXTT1=
EXTT2=
EXTT3=
EXTT4=
EXTT5=
EXTT6=
EXTT7=
EXTT8=
EXTT9=
EXTT10=
EXTT11=
EXTT12=
EXTT13=
PLAYORDER=
